<?xml version="1.0" encoding="UTF-8"?>
<svg id="Livello_2" data-name="Livello 2" xmlns="http://www.w3.org/2000/svg" viewBox="0 0 1100.93 842.28">
  <defs>
    <style>
      .cls-1 {
        fill: #4c204c;
      }

      .cls-2 {
        fill: #643164;
      }
    </style>
  </defs>
  <g id="Livello_1-2" data-name="Livello 1">
    <rect class="cls-2" x="172.65" y="334.62" width="10.95" height="399.33"/>
    <rect class="cls-2" x="75.47" y="679.9" width="10.95" height="10.95"/>
    <rect class="cls-2" x="75.47" y="798.68" width="10.95" height="10.95"/>
    <rect class="cls-2" x="21.36" y="679.9" width="32.65" height="10.95"/>
    <rect class="cls-2" x="21.36" y="701.45" width="32.65" height="86.28"/>
    <rect class="cls-2" x="75.58" y="701.63" width="10.78" height="86.28"/>
    <rect class="cls-2" x="21.36" y="798.68" width="32.65" height="10.95"/>
    <rect class="cls-2" x="10.67" y="820.4" width="86.6" height="10.95"/>
    <rect class="cls-2" x="0" y="831.35" width="32.37" height="10.54"/>
    <rect class="cls-2" x="161.94" y="744.77" width="129.42" height="10.82"/>
    <rect class="cls-2" x="172.82" y="751.82" width="107.89" height="14.58"/>
    <rect class="cls-2" x="172.7" y="776.96" width="107.89" height="10.82"/>
    <rect class="cls-2" x="161.94" y="831.35" width="107.89" height="10.82"/>
    <rect class="cls-2" x="291.52" y="831.13" width="507.12" height="11.04"/>
    <rect class="cls-2" x="129.54" y="215.73" width="841.92" height="11.04"/>
    <rect class="cls-2" x="129.44" y="787.77" width="43.26" height="14.5"/>
    <rect class="cls-2" x="140.31" y="776.96" width="21.63" height="13.75"/>
    <rect class="cls-2" x="291.52" y="776.96" width="21.63" height="13.75"/>
    <rect class="cls-2" x="356.12" y="787.89" width="21.63" height="10.82"/>
    <rect class="cls-2" x="280.71" y="787.77" width="42.84" height="14.5"/>
    <rect class="cls-2" x="129.44" y="798.68" width="194.1" height="10.82"/>
    <rect class="cls-2" x="194.2" y="334.62" width="10.95" height="399.32"/>
    <rect class="cls-2" x="248.06" y="334.62" width="10.95" height="399.35"/>
    <rect class="cls-2" x="269.76" y="334.62" width="10.95" height="366.9"/>
    <rect class="cls-1" x="291.39" y="442.51" width="14.9" height="291.44"/>
    <rect class="cls-1" x="291.39" y="334.62" width="10.95" height="291.44"/>
    <rect class="cls-1" x="302.12" y="442.51" width="13.36" height="323.89"/>
    <rect class="cls-1" x="313" y="291.35" width="10.95" height="485.77"/>
    <rect class="cls-1" x="299.66" y="399.38" width="15.21" height="10.76"/>
    <rect class="cls-1" x="300.64" y="420.94" width="14.85" height="10.76"/>
    <rect class="cls-2" x="215.63" y="334.62" width="10.95" height="366.9"/>
    <rect class="cls-2" x="224.31" y="334.62" width="13.22" height="313"/>
    <rect class="cls-2" x="70.16" y="577.46" width="21.58" height="161.89" transform="translate(-577.46 739.35) rotate(-90)"/>
    <rect class="cls-2" x="161.93" y="312.9" width="129.42" height="10.82" transform="translate(453.27 636.61) rotate(-180)"/>
    <rect class="cls-2" x="172.57" y="302.08" width="107.89" height="15.28" transform="translate(453.04 619.44) rotate(-180)"/>
    <rect class="cls-2" x="172.69" y="280.71" width="107.89" height="10.82" transform="translate(453.27 572.23) rotate(-180)"/>
    <rect class="cls-2" x="280.58" y="268.4" width="43.26" height="12.31" transform="translate(604.42 549.11) rotate(-180)"/>
    <rect class="cls-2" x="291.34" y="278.25" width="21.63" height="13.27" transform="translate(604.32 569.78) rotate(-180)"/>
    <rect class="cls-2" x="140.13" y="278.39" width="21.63" height="13.14" transform="translate(301.89 569.91) rotate(-180)"/>
    <rect class="cls-2" x="129.74" y="262.27" width="42.84" height="18.44" transform="translate(302.31 542.98) rotate(-180)"/>
    <rect class="cls-2" x="140.35" y="248.08" width="172.65" height="12.44" transform="translate(453.36 508.6) rotate(-180)"/>
    <rect class="cls-2" x="129.74" y="258.98" width="194.1" height="10.82" transform="translate(453.57 528.79) rotate(-180)"/>
    <rect class="cls-2" x="917.34" y="334.34" width="10.95" height="399.33" transform="translate(1845.62 1068.02) rotate(-180)"/>
    <rect class="cls-2" x="1014.51" y="679.63" width="10.95" height="10.95" transform="translate(2039.98 1370.2) rotate(-180)"/>
    <rect class="cls-2" x="1014.51" y="798.4" width="10.95" height="10.95" transform="translate(2039.98 1607.75) rotate(-180)"/>
    <rect class="cls-2" x="1046.92" y="679.63" width="32.65" height="10.95" transform="translate(2126.5 1370.2) rotate(-180)"/>
    <rect class="cls-2" x="1046.92" y="701.17" width="32.65" height="86.28" transform="translate(2126.5 1488.63) rotate(-180)"/>
    <rect class="cls-2" x="1014.58" y="701.35" width="10.78" height="86.28" transform="translate(2039.94 1488.98) rotate(-180)"/>
    <rect class="cls-2" x="868.78" y="582.64" width="10.78" height="96.74" transform="translate(1748.34 1262.02) rotate(-180)"/>
    <rect class="cls-2" x="1046.92" y="798.4" width="32.65" height="10.95" transform="translate(2126.5 1607.75) rotate(-180)"/>
    <rect class="cls-2" x="1003.66" y="820.12" width="86.6" height="10.95" transform="translate(2093.92 1651.2) rotate(-180)"/>
    <rect class="cls-2" x="1068.57" y="831.07" width="32.37" height="10.54" transform="translate(2169.5 1672.69) rotate(-180)"/>
    <rect class="cls-2" x="809.58" y="744.49" width="129.42" height="10.82" transform="translate(1748.57 1499.79) rotate(-180)"/>
    <rect class="cls-2" x="820.22" y="752.17" width="107.89" height="13.96" transform="translate(1748.34 1518.29) rotate(-180)"/>
    <rect class="cls-2" x="323.97" y="809.58" width="453.13" height="10.82" transform="translate(1101.06 1629.98) rotate(-180)"/>
    <rect class="cls-2" x="820.34" y="776.98" width="107.89" height="10.82" transform="translate(1748.57 1564.79) rotate(-180)"/>
    <rect class="cls-2" x="820.34" y="831.1" width="118.62" height="10.82" transform="translate(1759.3 1673.01) rotate(-180)"/>
    <rect class="cls-2" x="928.23" y="787.82" width="43.26" height="16.05" transform="translate(1899.72 1591.7) rotate(-180)"/>
    <rect class="cls-2" x="938.99" y="776.98" width="21.63" height="14.6" transform="translate(1899.62 1568.57) rotate(-180)"/>
    <rect class="cls-2" x="787.78" y="776.68" width="21.63" height="13.59" transform="translate(1597.19 1566.95) rotate(-180)"/>
    <rect class="cls-2" x="787.78" y="791" width="32.44" height="13.59" transform="translate(1608.01 1595.59) rotate(-180)"/>
    <rect class="cls-2" x="701.59" y="787.95" width="10.81" height="10.81" transform="translate(1413.99 1586.71) rotate(-180)"/>
    <rect class="cls-2" x="388.36" y="787.89" width="10.81" height="10.81" transform="translate(787.54 1586.6) rotate(-180)"/>
    <rect class="cls-2" x="776.97" y="787.89" width="43.26" height="10.82" transform="translate(1597.19 1586.6) rotate(-180)"/>
    <rect class="cls-2" x="431.81" y="788.15" width="258.78" height="10.82" transform="translate(1122.4 1587.11) rotate(-180)"/>
    <rect class="cls-2" x="787.87" y="798.66" width="183.58" height="10.82" transform="translate(1759.31 1608.14) rotate(-180)"/>
    <rect class="cls-2" x="895.79" y="334.34" width="10.95" height="399.32" transform="translate(1802.53 1068) rotate(-180)"/>
    <rect class="cls-2" x="841.92" y="334.34" width="10.95" height="399.35" transform="translate(1694.79 1068.04) rotate(-180)"/>
    <rect class="cls-2" x="820.22" y="334.34" width="10.95" height="399.3" transform="translate(1651.4 1067.98) rotate(-180)"/>
    <rect class="cls-1" x="798.59" y="334.17" width="10.95" height="399.5" transform="translate(1608.13 1067.84) rotate(-180)"/>
    <rect class="cls-1" x="785.46" y="431.58" width="13.35" height="334.74" transform="translate(1584.27 1197.91) rotate(-180)"/>
    <rect class="cls-1" x="771.62" y="291.07" width="16.31" height="485.99" transform="translate(1559.55 1068.14) rotate(-180)"/>
    <rect class="cls-1" x="766.15" y="280.43" width="10.95" height="507.51" transform="translate(1543.24 1068.37) rotate(-180)"/>
    <rect class="cls-1" x="786.25" y="399.4" width="14.45" height="10.76" transform="translate(1586.95 809.55) rotate(-180)"/>
    <rect class="cls-1" x="785.46" y="366.94" width="14.85" height="21.91" transform="translate(1585.76 755.8) rotate(-180)"/>
    <rect class="cls-1" x="791.17" y="431.55" width="14.85" height="302.12" transform="translate(1597.19 1165.22) rotate(-180)"/>
    <rect class="cls-2" x="871.34" y="334.34" width="13.96" height="226.66" transform="translate(1756.65 895.34) rotate(-180)"/>
    <rect class="cls-2" x="874.36" y="582.59" width="10.95" height="140.53" transform="translate(1759.66 1305.71) rotate(-180)"/>
    <rect class="cls-2" x="863.41" y="334.34" width="10.95" height="345.04" transform="translate(1737.76 1013.72) rotate(-180)"/>
    <rect class="cls-2" x="1009.2" y="577.18" width="21.58" height="161.89" transform="translate(361.86 1678.12) rotate(-90)"/>
    <rect class="cls-2" x="809.59" y="312.62" width="129.42" height="10.82"/>
    <rect class="cls-2" x="820.47" y="301.8" width="107.89" height="13.46"/>
    <rect class="cls-2" x="820.35" y="280.43" width="107.89" height="10.82"/>
    <rect class="cls-2" x="777.09" y="266.21" width="43.26" height="14.22"/>
    <rect class="cls-2" x="787.96" y="277.25" width="21.63" height="14"/>
    <rect class="cls-2" x="766.28" y="248.24" width="10.81" height="10.82"/>
    <rect class="cls-2" x="971.44" y="205.06" width="10.81" height="10.82"/>
    <rect class="cls-2" x="723.07" y="86.39" width="10.81" height="10.82"/>
    <rect class="cls-2" x="367.07" y="86.39" width="10.81" height="10.82"/>
    <rect class="cls-2" x="351.88" y="97.2" width="15.19" height="10.82"/>
    <rect class="cls-2" x="336.7" y="108.46" width="15.19" height="10.3"/>
    <rect class="cls-2" x="690.71" y="64.75" width="10.81" height="10.82"/>
    <rect class="cls-2" x="669.16" y="53.93" width="10.81" height="10.82"/>
    <rect class="cls-2" x="518.01" y="61.99" width="10.81" height="13.58"/>
    <rect class="cls-2" x="558.16" y="107.85" width="13.94" height="10.82"/>
    <rect class="cls-2" x="528.93" y="107.85" width="14.25" height="10.82"/>
    <rect class="cls-2" x="504.42" y="151.12" width="13.7" height="10.82"/>
    <rect class="cls-2" x="556.98" y="161.89" width="15.16" height="10.82"/>
    <rect class="cls-2" x="612.16" y="151.08" width="14.08" height="10.82"/>
    <rect class="cls-2" x="582.93" y="151.08" width="15.04" height="10.82"/>
    <rect class="cls-2" x="474.81" y="151.12" width="13.06" height="10.82"/>
    <rect class="cls-2" x="528.9" y="161.89" width="16.25" height="10.82"/>
    <rect class="cls-2" x="494.83" y="96.81" width="12.49" height="12.49"/>
    <rect class="cls-2" x="453.36" y="101.78" width="12.49" height="12.49"/>
    <rect class="cls-2" x="465.53" y="101.6" width="12.49" height="12.49"/>
    <rect class="cls-2" x="431.82" y="97.2" width="15.31" height="10.82"/>
    <rect class="cls-2" x="431.82" y="75.57" width="13.34" height="10.82"/>
    <rect class="cls-2" x="474.33" y="101.38" width="12.49" height="12.49"/>
    <rect class="cls-2" x="701.52" y="75.57" width="21.55" height="10.82"/>
    <rect class="cls-2" x="377.88" y="75.57" width="21.55" height="10.82"/>
    <rect class="cls-2" x="399.5" y="64.75" width="21.55" height="10.82"/>
    <rect class="cls-2" x="421.05" y="53.93" width="21.55" height="10.82"/>
    <rect class="cls-2" x="518.01" y="50.96" width="21.55" height="13.8"/>
    <rect class="cls-2" x="539.75" y="96.7" width="21.55" height="32.84"/>
    <rect class="cls-2" x="485.69" y="140.34" width="21.55" height="21.55"/>
    <rect class="cls-2" x="539.69" y="161.94" width="21.55" height="21.55"/>
    <rect class="cls-2" x="593.81" y="140.34" width="21.55" height="21.55"/>
    <rect class="cls-2" x="474.91" y="115.2" width="43.1" height="14.06"/>
    <rect class="cls-2" x="453.36" y="107.63" width="64.65" height="10.82"/>
    <rect class="cls-2" x="442.6" y="75.57" width="43.08" height="32.45"/>
    <rect class="cls-2" x="215.99" y="183.54" width="32.45" height="21.36"/>
    <rect class="cls-2" x="226.48" y="161.71" width="32.45" height="32.45"/>
    <rect class="cls-2" x="237.37" y="140.21" width="32.45" height="32.45"/>
    <rect class="cls-2" x="248.19" y="129.57" width="32.45" height="21.45"/>
    <rect class="cls-2" x="258.94" y="118.85" width="32.45" height="21.45"/>
    <rect class="cls-2" x="269.83" y="108.03" width="32.45" height="21.45"/>
    <rect class="cls-2" x="280.61" y="97.3" width="32.45" height="21.45"/>
    <rect class="cls-2" x="302.28" y="86.48" width="21.45" height="21.45"/>
    <rect class="cls-2" x="313" y="75.66" width="32.44" height="21.45"/>
    <rect class="cls-2" x="334.63" y="64.85" width="32.44" height="21.45"/>
    <rect class="cls-2" x="345.44" y="54.03" width="32.44" height="21.45"/>
    <rect class="cls-2" x="367.07" y="43.21" width="32.44" height="21.45"/>
    <rect class="cls-2" x="388.61" y="32.39" width="32.44" height="21.45"/>
    <rect class="cls-2" x="410.27" y="21.67" width="32.44" height="21.45"/>
    <rect class="cls-2" x="442.58" y="10.85" width="32.44" height="21.45"/>
    <rect class="cls-2" x="626" y="10.85" width="32.44" height="21.45"/>
    <rect class="cls-2" x="658.35" y="21.58" width="32.44" height="21.45"/>
    <rect class="cls-2" x="679.9" y="32.39" width="32.44" height="21.45"/>
    <rect class="cls-2" x="701.52" y="43.3" width="32.44" height="21.45"/>
    <rect class="cls-2" x="723.07" y="54.03" width="32.44" height="21.45"/>
    <rect class="cls-2" x="733.89" y="64.85" width="32.44" height="21.45"/>
    <rect class="cls-2" x="755.51" y="75.66" width="32.44" height="21.45"/>
    <rect class="cls-2" x="766.38" y="86.39" width="32.44" height="21.45"/>
    <rect class="cls-2" x="787.94" y="97.3" width="32.44" height="21.45"/>
    <rect class="cls-2" x="798.81" y="108.02" width="32.44" height="21.45"/>
    <rect class="cls-2" x="809.47" y="118.74" width="32.44" height="21.45"/>
    <rect class="cls-2" x="820.38" y="129.47" width="32.44" height="21.45"/>
    <rect class="cls-2" x="852.82" y="183.5" width="32.44" height="21.45"/>
    <rect class="cls-2" x="831.25" y="140.22" width="32.44" height="32.44"/>
    <rect class="cls-2" x="841.91" y="161.78" width="32.44" height="32.44"/>
    <rect class="cls-2" x="442.6" y="43.12" width="32.39" height="10.82"/>
    <rect class="cls-2" x="496.47" y="39.13" width="107.81" height="14.8"/>
    <rect class="cls-2" x="496.56" y="0" width="107.81" height="14.82"/>
    <rect class="cls-2" x="474.99" y="32.3" width="150.92" height="10.82"/>
    <rect class="cls-2" x="468.55" y="10.85" width="168.36" height="10.82"/>
    <rect class="cls-2" x="625.91" y="43.12" width="32.61" height="10.82"/>
    <rect class="cls-2" x="323.81" y="222.24" width="10.81" height="15.26"/>
    <rect class="cls-2" x="269.83" y="172.66" width="10.81" height="21.75"/>
    <rect class="cls-2" x="312.95" y="140.2" width="10.81" height="43.34"/>
    <rect class="cls-2" x="798.66" y="150.94" width="10.81" height="32.6"/>
    <rect class="cls-2" x="744.7" y="108.02" width="10.81" height="75.52"/>
    <rect class="cls-2" x="334.63" y="108.02" width="10.81" height="75.52"/>
    <rect class="cls-2" x="766.38" y="140.25" width="10.81" height="21.47"/>
    <rect class="cls-2" x="739.29" y="108.01" width="10.81" height="32.25"/>
    <rect class="cls-2" x="345.44" y="97.28" width="10.81" height="21.47"/>
    <rect class="cls-2" x="733.89" y="96.81" width="10.81" height="43.45"/>
    <rect class="cls-2" x="280.64" y="151.07" width="21.58" height="32.47"/>
    <rect class="cls-2" x="302.13" y="223.82" width="10.81" height="13.68"/>
    <rect class="cls-2" x="291.43" y="140.2" width="10.81" height="16.24"/>
    <rect class="cls-2" x="272.39" y="172.66" width="47.82" height="10.82"/>
    <rect class="cls-2" x="483.93" y="86.39" width="12.58" height="23.82"/>
    <rect class="cls-2" x="118.74" y="205.11" width="10.81" height="10.82"/>
    <rect class="cls-2" x="777.12" y="222.24" width="21.66" height="15.26"/>
    <rect class="cls-2" x="680.09" y="221.36" width="75.46" height="16.14"/>
    <rect class="cls-2" x="701.5" y="194.22" width="140.56" height="10.82"/>
    <rect class="cls-2" x="258.94" y="194.22" width="140.56" height="10.82"/>
    <rect class="cls-2" x="345.05" y="222.24" width="324.44" height="15.26"/>
    <rect class="cls-2" x="939.17" y="275.85" width="21.63" height="15.4"/>
    <rect class="cls-2" x="928.36" y="266.21" width="43.26" height="14.22"/>
    <rect class="cls-2" x="787.93" y="247.8" width="172.65" height="14.03"/>
    <rect class="cls-2" x="777.09" y="258.71" width="194.1" height="10.82"/>
    <rect class="cls-2" x="593.73" y="96.7" width="14.14" height="14.14" transform="translate(1201.6 207.54) rotate(-180)"/>
    <rect class="cls-2" x="653.06" y="97.05" width="16.16" height="10.82" transform="translate(1322.29 204.92) rotate(-180)"/>
    <rect class="cls-2" x="653.59" y="75.46" width="15.63" height="10.82" transform="translate(1322.81 161.74) rotate(-180)"/>
    <rect class="cls-2" x="618.42" y="100.51" width="15.63" height="10.82" transform="translate(1252.48 211.84) rotate(-180)"/>
    <rect class="cls-2" x="632.04" y="101.39" width="15.63" height="10.82" transform="translate(1279.72 213.59) rotate(-180)"/>
    <rect class="cls-2" x="583.04" y="115.2" width="43.1" height="13.95" transform="translate(1209.17 244.36) rotate(-180)"/>
    <rect class="cls-2" x="583.04" y="107.52" width="64.65" height="10.82" transform="translate(1230.72 225.85) rotate(-180)"/>
    <rect class="cls-2" x="615.37" y="75.46" width="43.08" height="32.45" transform="translate(1273.82 183.37) rotate(-180)"/>
    <rect class="cls-2" x="604.55" y="86.28" width="14.65" height="23.85" transform="translate(1223.75 196.4) rotate(-180)"/>
  </g>
</svg>