<?xml version="1.0" encoding="UTF-8"?>
<svg id="Livello_2" data-name="Livello 2" xmlns="http://www.w3.org/2000/svg" viewBox="0 0 458.15 102.75">
  <defs>
    <style>
      .cls-1 {
        fill: #1d1d1b;
      }
    </style>
  </defs>
  <g id="Livello_1-2" data-name="Livello 1">
    <g>
      <line x1="439.23" y1="36.18" x2="452.12" y2="33.04"/>
      <path class="cls-1" d="M439.9,38.6c3.77-.92,7.53-1.84,11.3-2.75,.53-.13,1.06-.26,1.59-.39,1.27-.31,2.15-1.82,1.75-3.08-.43-1.32-1.71-2.08-3.08-1.75-3.77,.92-7.53,1.84-11.3,2.75-.53,.13-1.06,.26-1.59,.39-1.27,.31-2.15,1.82-1.75,3.08,.43,1.32,1.71,2.08,3.08,1.75h0Z"/>
    </g>
    <path class="cls-1" d="M437.21,52h13.26c1.31,0,2.56-1.15,2.5-2.5s-1.1-2.5-2.5-2.5h-13.26c-1.31,0-2.56,1.15-2.5,2.5s1.1,2.5,2.5,2.5h0Z"/>
    <g>
      <line x1="410.57" y1="50.49" x2="433.19" y2="42.67"/>
      <path class="cls-1" d="M411.24,52.9c6.6-2.28,13.21-4.57,19.81-6.85,.94-.32,1.87-.65,2.81-.97,1.28-.44,2.12-1.71,1.75-3.08-.34-1.24-1.79-2.19-3.08-1.75-6.6,2.28-13.21,4.57-19.81,6.85-.94,.32-1.87,.65-2.81,.97-1.28,.44-2.12,1.71-1.75,3.08,.34,1.24,1.79,2.19,3.08,1.75h0Z"/>
    </g>
    <g>
      <line x1="410.66" y1="49.5" x2="429.7" y2="76.39"/>
      <path class="cls-1" d="M408.5,50.76c5.55,7.83,11.09,15.67,16.64,23.5,.8,1.13,1.6,2.26,2.4,3.39s2.18,1.62,3.42,.9c1.09-.64,1.68-2.31,.9-3.42-5.55-7.83-11.09-15.67-16.64-23.5-.8-1.13-1.6-2.26-2.4-3.39s-2.18-1.62-3.42-.9c-1.09,.64-1.68,2.31-.9,3.42h0Z"/>
    </g>
    <g>
      <line x1="435.36" y1="24.77" x2="445.92" y2="17.94"/>
      <path class="cls-1" d="M436.62,26.93c3.08-1.99,6.16-3.99,9.24-5.98,.44-.28,.88-.57,1.32-.85,1.1-.71,1.65-2.25,.9-3.42-.71-1.1-2.25-1.66-3.42-.9-3.08,1.99-6.16,3.99-9.24,5.98-.44,.28-.88,.57-1.32,.85-1.1,.71-1.65,2.25-.9,3.42,.71,1.1,2.25,1.66,3.42,.9h0Z"/>
    </g>
    <g>
      <line x1="426.59" y1="15.93" x2="430.34" y2="9.43"/>
      <path class="cls-1" d="M428.75,17.19c1.09-1.89,2.19-3.79,3.28-5.68,.16-.27,.31-.54,.47-.81,.65-1.13,.3-2.79-.9-3.42s-2.72-.31-3.42,.9c-1.09,1.89-2.19,3.79-3.28,5.68-.16,.27-.31,.54-.47,.81-.65,1.13-.3,2.79,.9,3.42s2.72,.31,3.42-.9h0Z"/>
    </g>
    <g>
      <line x1="427.47" y1="85.29" x2="433.2" y2="93.36"/>
      <path class="cls-1" d="M425.31,86.55c1.67,2.35,3.34,4.7,5.01,7.06,.24,.34,.48,.68,.72,1.01,.39,.54,.83,.97,1.49,1.15,.6,.16,1.4,.09,1.93-.25,1.06-.68,1.71-2.28,.9-3.42-1.67-2.35-3.34-4.7-5.01-7.06-.24-.34-.48-.68-.72-1.01-.39-.54-.83-.97-1.49-1.15-.6-.16-1.4-.09-1.93,.25-1.06,.68-1.71,2.28-.9,3.42h0Z"/>
    </g>
    <g>
      <line x1="435.51" y1="77.45" x2="445.77" y2="84.73"/>
      <path class="cls-1" d="M434.25,79.6c2.99,2.13,5.99,4.25,8.98,6.38l1.27,.9c1.07,.76,2.83,.22,3.42-.9,.68-1.29,.24-2.61-.9-3.42-2.99-2.13-5.99-4.25-8.98-6.38l-1.27-.9c-1.07-.76-2.83-.22-3.42,.9-.68,1.29-.24,2.61,.9,3.42h0Z"/>
    </g>
    <g>
      <line x1="439.31" y1="64.25" x2="446.73" y2="65.33"/>
      <path class="cls-1" d="M438.64,66.66c2.17,.32,4.33,.63,6.5,.95,.31,.04,.62,.09,.92,.13,.69,.1,1.3,.12,1.93-.25,.52-.3,1.01-.9,1.15-1.49,.15-.64,.11-1.36-.25-1.93-.33-.51-.87-1.06-1.49-1.15-2.17-.32-4.33-.63-6.5-.95-.31-.04-.62-.09-.92-.13-.69-.1-1.3-.12-1.93,.25-.52,.3-1.01,.9-1.15,1.49-.15,.64-.11,1.36,.25,1.93,.33,.51,.87,1.06,1.49,1.15h0Z"/>
    </g>
    <g id="Livello_3" data-name="Livello 3">
      <g id="Livello_4" data-name="Livello 4">
        <g>
          <path d="M12.63,.45V68.18c0,18.28,6.72,24.38,15.13,24.38,9.38,0,15.47-6.57,15.47-24.38V.45h12.63V66.4c0,26.26-11.87,36.35-28.29,36.35S0,92.81,0,67.77V.45H12.63Z"/>
          <path d="M75.51,101.55V.45h11.94l20.37,47.42c4.64,10.85,10.37,24.23,14.21,35.18h.33c-1-15.91-1.55-28.95-1.55-46.42V.45h11.41V101.55h-11.94l-21.09-48.63c-4.5-10.21-9.26-21.67-13.19-34.31h-.33c.95,13.52,1.25,26.34,1.25,47.92v35.02h-11.41Z"/>
          <path d="M165.01,10.83h-20.31V.45h53.29V10.83h-20.36V101.55h-12.63V10.83Z"/>
          <path d="M223.03,.45V101.55h-12.63V.45h12.63Z"/>
          <path d="M310.21,58c-.72-13.34-1.5-28.11-1.1-39.6h-.67c-2.39,11.28-5.35,23.35-8.79,35.17l-13.66,47.35h-8.08l-12.99-45.46c-3.67-12.86-6.93-25.36-9.1-37.05h-.56c.08,11.91-.63,26.05-1.35,40.44l-2.04,42.71h-11.44L247.01,.45h13.78l12.96,46.24c3.72,13.33,6.52,23.25,8.91,34.75h.45c2.17-11.52,4.64-21.15,8.2-34.75L303.91,.45h14.2l6.34,101.1h-11.85l-2.39-43.54Z"/>
          <path d="M382.24,53.51h-27.78v38.01h31.67v10.03h-44.3V.45h42.26V10.48h-29.62V43.75h27.78v9.76Z"/>
          <path d="M400.13,1.95c4.79-1.37,10.69-1.95,17.02-1.95,11.65,0,19.95,2.63,26.03,7.61,8.62,6.78,14.97,19.86,14.97,40.96,0,23.12-6.18,35.7-13.31,42.69-7.17,7.41-17.86,10.87-30.58,10.87-5.16,0-10.5-.33-14.14-.99V1.95Zm12.58,90.21c1.86,.3,3.69,.3,4.84,.3,13.96,0,27.49-9.19,27.49-43.58,0-25.46-8.58-39.45-26.41-39.45-2.01,0-4.2,.21-5.93,.56V92.16Z"/>
        </g>
      </g>
    </g>
  </g>
</svg>