<?xml version="1.0" encoding="UTF-8"?>
<svg id="Livello_2" data-name="Livello 2" xmlns="http://www.w3.org/2000/svg" viewBox="0 0 1359.59 2582.38">
  <defs>
    <style>
      .cls-1 {
        fill: #fff;
        opacity: .5;
      }
    </style>
  </defs>
  <g id="Livello_1-2" data-name="Livello 1">
    <rect class="cls-1" y="6.42" width="10.25" height="715.01"/>
    <rect class="cls-1" x="41.26" y="3.13" width="10.25" height="475.4"/>
    <rect class="cls-1" x="32.85" y="190.2" width="10.25" height="625.56"/>
    <rect class="cls-1" x="16.42" y="22.55" width="10.25" height="625.56"/>
    <rect class="cls-1" x="66.13" y="8.08" width="10.25" height="281.61"/>
    <rect class="cls-1" x="71.26" y="132.28" width="10.25" height="615.15"/>
    <rect class="cls-1" x="108.66" y="575.85" width="10.25" height="260.67"/>
    <rect class="cls-1" x="220.73" width="10.25" height="401.89"/>
    <rect class="cls-1" x="280.38" y="252.26" width="10.25" height="519.79"/>
    <rect class="cls-1" x="1082.63" y="15.77" width="10.25" height="783"/>
    <rect class="cls-1" x="124.42" y="716.96" width="10.25" height="110.19"/>
    <rect class="cls-1" x="11.3" y="731.4" width="10.25" height="110.19"/>
    <rect class="cls-1" x="163.45" y="57.66" width="10.25" height="771.59"/>
    <rect class="cls-1" x="124.42" y="381.92" width="10.25" height="260.67"/>
    <rect class="cls-1" x="158.32" y="8.08" width="10.25" height="260.67"/>
    <rect class="cls-1" x="1145.3" y="66.83" width="10.25" height="767.67"/>
    <rect class="cls-1" x="1087.75" y="326.56" width="10.25" height="507.94"/>
    <rect class="cls-1" x="108.66" y="118.53" width="10.25" height="393.72"/>
    <rect class="cls-1" x="140.58" y=".3" width="10.25" height="393.72"/>
    <rect class="cls-1" x="1135.05" y="363.32" width="10.25" height="393.72"/>
    <rect class="cls-1" x="1171.45" y="6.68" width="10.25" height="538.77"/>
    <rect class="cls-1" x="1195.49" y="26.58" width="10.25" height="140.13"/>
    <rect class="cls-1" x="1325.96" y="8.78" width="10.25" height="300.18"/>
    <rect class="cls-1" x="1332.66" y="93.33" width="10.25" height="308.65"/>
    <rect class="cls-1" x="1288.64" y="3.72" width="10.25" height="194.72"/>
    <rect class="cls-1" x="1305.55" y="15.77" width="10.25" height="612.72"/>
    <rect class="cls-1" x="1344.22" y="2.21" width="10.25" height="729.99"/>
    <rect class="cls-1" x="1245.28" y="567.9" width="10.25" height="273.69"/>
    <rect class="cls-1" x="1262.63" y="722.47" width="10.25" height="114.66"/>
    <rect class="cls-1" x="1254.48" y="3.72" width="10.25" height="36.86"/>
    <rect class="cls-1" x="1252.38" y="72.81" width="10.25" height="768.78"/>
    <rect class="cls-1" x="1349.34" y="6.68" width="10.25" height="762.4"/>
    <rect class="cls-1" x="145.71" y="297.76" width="10.25" height="524.83"/>
    <rect class="cls-1" x="11.3" y="841.59" width="10.25" height="716.05"/>
    <rect class="cls-1" x="41.65" y="854.5" width="10.25" height="478.23"/>
    <rect class="cls-1" x="250.55" y="902.28" width="10.25" height="625.56"/>
    <rect class="cls-1" x="16.82" y="876.75" width="10.25" height="625.56"/>
    <rect class="cls-1" x="1045.58" y="860.32" width="10.25" height="281.61"/>
    <rect class="cls-1" x="87.79" y="928.54" width="10.25" height="615.15"/>
    <rect class="cls-1" x="109.05" y="1430.04" width="10.25" height="260.67"/>
    <rect class="cls-1" x="185.12" y="968.65" width="10.25" height="401.89"/>
    <rect class="cls-1" x="245.43" y="945.01" width="10.25" height="519.79"/>
    <rect class="cls-1" x="1082.63" y="857.35" width="10.25" height="783"/>
    <rect class="cls-1" x="311.65" y="1543.53" width="10.25" height="110.19"/>
    <rect class="cls-1" x="62.93" y="1568.52" width="10.25" height="110.19"/>
    <rect class="cls-1" x="210.48" y="928.54" width="10.25" height="771.59"/>
    <rect class="cls-1" x="124.82" y="1236.12" width="10.25" height="260.67"/>
    <rect class="cls-1" x="158.72" y="862.28" width="10.25" height="260.67"/>
    <rect class="cls-1" x="1145.3" y="908.42" width="10.25" height="805.5"/>
    <rect class="cls-1" x="1087.75" y="1168.15" width="10.25" height="507.94"/>
    <rect class="cls-1" x="109.05" y="972.73" width="10.25" height="393.72"/>
    <rect class="cls-1" x="140.98" y="854.5" width="10.25" height="393.72"/>
    <rect class="cls-1" x="1135.05" y="1204.9" width="10.25" height="393.72"/>
    <rect class="cls-1" x="1176.57" y="857.35" width="10.25" height="545.15"/>
    <rect class="cls-1" x="1200.61" y="902.67" width="10.25" height="140.13"/>
    <rect class="cls-1" x="1253.08" y="846.94" width="10.25" height="131.54"/>
    <rect class="cls-1" x="1236.42" y="1035.2" width="10.25" height="308.65"/>
    <rect class="cls-1" x="1181.69" y="1204.9" width="10.25" height="308.65"/>
    <rect class="cls-1" x="1298.65" y="841.89" width="10.25" height="201.09"/>
    <rect class="cls-1" x="1305.55" y="841.89" width="10.25" height="628.18"/>
    <rect class="cls-1" x="1050.7" y="966.78" width="10.25" height="689.5"/>
    <rect class="cls-1" x="1245.28" y="1409.48" width="10.25" height="273.69"/>
    <rect class="cls-1" x="1279.97" y="1483.97" width="10.25" height="119.11"/>
    <rect class="cls-1" x="1267.75" y="843.69" width="10.25" height="34.19"/>
    <rect class="cls-1" x="1245.28" y="841.55" width="10.25" height="767.01"/>
    <rect class="cls-1" x="1344.22" y="864.46" width="10.25" height="768.78"/>
    <rect class="cls-1" x="68.06" y="1124.62" width="10.25" height="524.83"/>
    <rect class="cls-1" y="1700.13" width="10.25" height="721.12"/>
    <rect class="cls-1" x="30.35" y="1718.12" width="10.25" height="478.23"/>
    <rect class="cls-1" x="239.26" y="1765.9" width="10.25" height="625.56"/>
    <rect class="cls-1" x="5.52" y="1740.37" width="10.25" height="625.56"/>
    <rect class="cls-1" x="1034.28" y="1723.93" width="10.25" height="281.61"/>
    <rect class="cls-1" x="76.49" y="1792.15" width="10.25" height="615.15"/>
    <rect class="cls-1" x="97.75" y="2293.66" width="10.25" height="260.67"/>
    <rect class="cls-1" x="173.82" y="1832.26" width="10.25" height="401.89"/>
    <rect class="cls-1" x="279.33" y="1814.54" width="10.25" height="519.79"/>
    <rect class="cls-1" x="1071.33" y="1720.97" width="10.25" height="783"/>
    <rect class="cls-1" x="300.35" y="2407.14" width="10.25" height="110.19"/>
    <rect class="cls-1" x="46.77" y="2257.35" width="10.25" height="110.19"/>
    <rect class="cls-1" x="199.18" y="1792.15" width="10.25" height="771.59"/>
    <rect class="cls-1" x="113.52" y="2099.73" width="10.25" height="260.67"/>
    <rect class="cls-1" x="147.42" y="1725.89" width="10.25" height="260.67"/>
    <rect class="cls-1" x="1111.8" y="1772.03" width="10.25" height="767.67"/>
    <rect class="cls-1" x="980.65" y="2074.44" width="10.25" height="507.94"/>
    <rect class="cls-1" x="97.75" y="1836.34" width="10.25" height="393.72"/>
    <rect class="cls-1" x="129.68" y="1718.12" width="10.25" height="393.72"/>
    <rect class="cls-1" x="1206.99" y="2150.73" width="10.25" height="393.72"/>
    <rect class="cls-1" x="1145.3" y="1713.92" width="10.25" height="543.43"/>
    <rect class="cls-1" x="1189.31" y="1766.28" width="10.25" height="140.13"/>
    <rect class="cls-1" x="1258.6" y="1710.73" width="10.25" height="140.13"/>
    <rect class="cls-1" x="1233.99" y="1898.82" width="10.25" height="308.65"/>
    <rect class="cls-1" x="1170.39" y="2068.52" width="10.25" height="308.65"/>
    <rect class="cls-1" x="1287.35" y="1705.5" width="10.25" height="201.09"/>
    <rect class="cls-1" x="1294.25" y="1705.5" width="10.25" height="628.18"/>
    <rect class="cls-1" x="1039.4" y="1830.4" width="10.25" height="689.5"/>
    <rect class="cls-1" x="1233.99" y="2273.1" width="10.25" height="273.69"/>
    <rect class="cls-1" x="1268.67" y="2347.59" width="10.25" height="119.11"/>
    <rect class="cls-1" x="1241.54" y="1740.37" width="10.25" height="768.78"/>
    <rect class="cls-1" x="1332.92" y="1728.08" width="10.25" height="768.78"/>
    <rect class="cls-1" x="51.9" y="1748.27" width="10.25" height="524.83"/>
  </g>
</svg>